<svg width="40" height="38" viewBox="0 0 40 38" fill="none" xmlns="http://www.w3.org/2000/svg">
<path d="M10.907 0.310207C10.8199 0.211882 10.7164 0.133866 10.6024 0.0806341C10.4885 0.0274018 10.3663 0 10.2429 0C10.1195 0 9.99736 0.0274018 9.88341 0.0806341C9.76945 0.133866 9.66596 0.211882 9.57886 0.310207L4.60386 5.87456L2.83043 3.93042C2.74333 3.8321 2.63984 3.75408 2.52588 3.70085C2.41193 3.64762 2.28975 3.62022 2.16636 3.62022C2.04298 3.62022 1.9208 3.64762 1.80685 3.70085C1.69289 3.75408 1.5894 3.8321 1.5023 3.93042L0.275739 5.31206C0.188339 5.41005 0.118992 5.52648 0.0716747 5.65468C0.0243572 5.78288 0 5.92032 0 6.05913C0 6.19795 0.0243572 6.33539 0.0716747 6.46359C0.118992 6.59179 0.188339 6.70822 0.275739 6.8062L3.99371 10.9722C4.17929 11.1707 4.42555 11.2813 4.6816 11.2813C4.93765 11.2813 5.18391 11.1707 5.36949 10.9722L6.58746 9.59937L12.2281 3.25454C12.4038 3.05667 12.5031 2.78882 12.5044 2.5091C12.5058 2.22938 12.409 1.96036 12.2351 1.7604L10.907 0.310207ZM10.907 14.3015C10.8199 14.2032 10.7164 14.1252 10.6024 14.0719C10.4885 14.0187 10.3663 13.9913 10.2429 13.9913C10.1195 13.9913 9.99736 14.0187 9.88341 14.0719C9.76945 14.1252 9.66596 14.2032 9.57886 14.3015L4.60386 19.9019L2.83043 17.9595C2.74333 17.8612 2.63984 17.7832 2.52588 17.73C2.41193 17.6767 2.28975 17.6493 2.16636 17.6493C2.04298 17.6493 1.9208 17.6767 1.80685 17.73C1.69289 17.7832 1.5894 17.8612 1.5023 17.9595L0.275739 19.3385C0.188339 19.4365 0.118992 19.5529 0.0716747 19.6811C0.0243572 19.8093 0 19.9468 0 20.0856C0 20.2244 0.0243572 20.3619 0.0716747 20.4901C0.118992 20.6183 0.188339 20.7347 0.275739 20.8327L3.98433 25.0075C4.16978 25.2059 4.41592 25.3165 4.67183 25.3165C4.92775 25.3165 5.17388 25.2059 5.35933 25.0075L6.5859 23.6285L12.2265 17.281C12.4016 17.0845 12.5006 16.8182 12.5019 16.54C12.5032 16.2618 12.4068 15.9942 12.2336 15.7957L10.907 14.3015ZM4.99996 29.5338C2.93043 29.5338 1.20386 31.4235 1.20386 33.7526C1.20386 36.0817 2.93199 37.9713 4.99996 37.9713C5.99452 37.9713 6.94835 37.5269 7.65161 36.7357C8.35487 35.9445 8.74996 34.8715 8.74996 33.7526C8.74996 32.6337 8.35487 31.5607 7.65161 30.7695C6.94835 29.9783 5.99452 29.5338 4.99996 29.5338ZM38.75 30.9401H16.25C15.9184 30.9401 15.6005 31.0882 15.3661 31.352C15.1317 31.6157 15 31.9734 15 32.3463V35.1588C15 35.5318 15.1317 35.8895 15.3661 36.1532C15.6005 36.4169 15.9184 36.5651 16.25 36.5651H38.75C39.0815 36.5651 39.3994 36.4169 39.6338 36.1532C39.8683 35.8895 40 35.5318 40 35.1588V32.3463C40 31.9734 39.8683 31.6157 39.6338 31.352C39.3994 31.0882 39.0815 30.9401 38.75 30.9401ZM38.75 2.81509H16.25C15.9184 2.81509 15.6005 2.96325 15.3661 3.22697C15.1317 3.49069 15 3.84838 15 4.22134V7.03384C15 7.4068 15.1317 7.76449 15.3661 8.02821C15.6005 8.29193 15.9184 8.44009 16.25 8.44009H38.75C39.0815 8.44009 39.3994 8.29193 39.6338 8.02821C39.8683 7.76449 40 7.4068 40 7.03384V4.22134C40 3.84838 39.8683 3.49069 39.6338 3.22697C39.3994 2.96325 39.0815 2.81509 38.75 2.81509ZM38.75 16.8776H16.25C15.9184 16.8776 15.6005 17.0257 15.3661 17.2895C15.1317 17.5532 15 17.9109 15 18.2838V21.0963C15 21.4693 15.1317 21.827 15.3661 22.0907C15.6005 22.3544 15.9184 22.5026 16.25 22.5026H38.75C39.0815 22.5026 39.3994 22.3544 39.6338 22.0907C39.8683 21.827 40 21.4693 40 21.0963V18.2838C40 17.9109 39.8683 17.5532 39.6338 17.2895C39.3994 17.0257 39.0815 16.8776 38.75 16.8776Z" fill="white"/>
</svg>
