<svg width="45" height="40" viewBox="0 0 45 40" fill="none" xmlns="http://www.w3.org/2000/svg">
<path d="M34.8955 40H38.2909C40.0091 40 41.4205 38.8358 41.625 37.3442L45 7.36699H34.7727V0H30.7432V7.36699H20.5773L21.1909 11.6235C24.6886 12.4784 27.9614 14.0246 29.925 15.7344C32.8705 18.3174 34.8955 20.9914 34.8955 25.357V40ZM0 38.181V36.3802H30.7432V38.181C30.7432 39.1814 29.8227 40 28.6773 40H2.06591C0.920454 40 0 39.1814 0 38.181ZM30.7432 25.4479C30.7432 10.8959 0 10.8959 0 25.4479H30.7432ZM0.0409091 29.1041H30.7227V32.7422H0.0409091V29.1041Z" fill="white"/>
</svg>
