<svg width="45" height="45" viewBox="0 0 45 45" fill="none" xmlns="http://www.w3.org/2000/svg">
<path d="M41.7825 28.935L45 25.7175L41.7825 22.5L33.75 30.5325L14.4675 11.25L22.5 3.2175L19.2825 0L16.065 3.2175L12.8475 0L8.0325 4.815L4.815 1.5975L1.5975 4.815L4.815 8.0325L0 12.8475L3.2175 16.065L0 19.2825L3.2175 22.5L11.25 14.4675L30.5325 33.75L22.5 41.7825L25.7175 45L28.935 41.7825L32.1525 45L36.9675 40.185L40.185 43.4025L43.4025 40.185L40.185 36.9675L45 32.1525L41.7825 28.935Z" fill="white"/>
</svg>
