<svg width="40" height="30" viewBox="0 0 40 30" fill="none" xmlns="http://www.w3.org/2000/svg">
<path d="M12 15C15.8687 15 19 11.6451 19 7.5C19 3.35491 15.8687 0 12 0C8.13125 0 5 3.35491 5 7.5C5 11.6451 8.13125 15 12 15ZM16.8 17.1429H16.2812C14.9812 17.8125 13.5375 18.2143 12 18.2143C10.4625 18.2143 9.025 17.8125 7.71875 17.1429H7.2C3.225 17.1429 0 20.5982 0 24.8571V26.7857C0 28.5603 1.34375 30 3 30H21C22.6562 30 24 28.5603 24 26.7857V24.8571C24 20.5982 20.775 17.1429 16.8 17.1429ZM30 15C33.3125 15 36 12.1205 36 8.57143C36 5.02232 33.3125 2.14286 30 2.14286C26.6875 2.14286 24 5.02232 24 8.57143C24 12.1205 26.6875 15 30 15ZM33 17.1429H32.7625C31.8938 17.4643 30.975 17.6786 30 17.6786C29.025 17.6786 28.1062 17.4643 27.2375 17.1429H27C25.725 17.1429 24.55 17.5379 23.5187 18.1741C25.0437 19.9353 26 22.2723 26 24.8571V27.4286C26 27.5759 25.9688 27.7165 25.9625 27.8571H37C38.6562 27.8571 40 26.4174 40 24.6429C40 20.4978 36.8688 17.1429 33 17.1429Z" fill="white"/>
</svg>
