<svg width="40" height="40" viewBox="0 0 40 40" fill="none" xmlns="http://www.w3.org/2000/svg">
<path d="M20 0C8.95161 0 0 8.95161 0 20C0 31.0484 8.95161 40 20 40C31.0484 40 40 31.0484 40 20C40 8.95161 31.0484 0 20 0ZM24.6048 28.2339L17.4919 23.0645C17.2419 22.879 17.0968 22.5887 17.0968 22.2823V8.70968C17.0968 8.17742 17.5323 7.74194 18.0645 7.74194H21.9355C22.4677 7.74194 22.9032 8.17742 22.9032 8.70968V19.8145L28.0242 23.5403C28.4597 23.8548 28.5484 24.4597 28.2339 24.8952L25.9597 28.0242C25.6452 28.4516 25.0403 28.5484 24.6048 28.2339Z" fill="white"/>
</svg>
