<svg width="40" height="30" viewBox="0 0 40 30" fill="none" xmlns="http://www.w3.org/2000/svg">
<path d="M0 13.125V29.0625C0 29.5805 0.4475 30 1 30H6V11.25H2C0.895625 11.25 0 12.0897 0 13.125ZM22.5 10.3125H21V7.96875C21 7.70977 20.7763 7.5 20.5 7.5H19.5C19.2237 7.5 19 7.70977 19 7.96875V11.7188C19 11.9777 19.2237 12.1875 19.5 12.1875H22.5C22.7763 12.1875 23 11.9777 23 11.7188V10.7813C23 10.5223 22.7763 10.3125 22.5 10.3125ZM31.1094 6.56485L21.1094 0.314653C20.7808 0.109477 20.3948 0 20 0C19.6052 0 19.2192 0.109477 18.8906 0.314653L8.89062 6.56485C8.61672 6.73605 8.39212 6.96798 8.23676 7.24007C8.0814 7.51216 8.00007 7.81599 8 8.12461V30H16V21.5625C16 21.0445 16.4475 20.625 17 20.625H23C23.5525 20.625 24 21.0445 24 21.5625V30H32V8.1252C32 7.49825 31.6656 6.91231 31.1094 6.56485ZM20 15C17.2388 15 15 12.9012 15 10.3125C15 7.72383 17.2388 5.625 20 5.625C22.7612 5.625 25 7.72383 25 10.3125C25 12.9012 22.7612 15 20 15ZM38 11.25H34V30H39C39.5525 30 40 29.5805 40 29.0625V13.125C40 12.0897 39.1044 11.25 38 11.25Z" fill="white"/>
</svg>
