<svg width="45" height="45" viewBox="0 0 45 45" fill="none" xmlns="http://www.w3.org/2000/svg">
<path d="M44.22 22.11C44.22 34.3211 34.3211 44.22 22.11 44.22C9.89895 44.22 0 34.3211 0 22.11C0 9.89895 9.89895 0 22.11 0C34.3211 0 44.22 9.89895 44.22 22.11ZM39.9406 22.11L39.9404 22.0849L37.6167 24.1123L32.0287 18.8968L33.4956 11.3763L36.5538 11.6502C34.3349 8.59972 31.2043 6.29306 27.5753 5.12943L28.7923 7.9769L22.11 11.6791L15.4277 7.97698L16.6447 5.12952C13.0223 6.29101 9.8887 8.59491 7.6662 11.6503L10.7478 11.3763L12.1913 18.8968L6.6034 24.1123L4.27971 22.0849L4.27944 22.11C4.27944 25.9449 5.48275 29.5946 7.70935 32.6293L8.39618 29.6073L15.9865 30.5386L19.2229 37.4771L16.557 39.0628C20.1411 40.2326 24.0717 40.2349 27.663 39.0628L24.9971 37.4771L28.2335 30.5386L35.8238 29.6073L36.5107 32.6293C38.7373 29.5946 39.9406 25.9449 39.9406 22.11ZM17.8216 28.3125L15.1564 20.1717L22.11 15.1322L29.0636 20.1717L26.4227 28.3125H17.8216Z" fill="white"/>
</svg>
