<svg width="45" height="45" viewBox="0 0 45 45" fill="none" xmlns="http://www.w3.org/2000/svg">
<path d="M17.5 7.50008V16.429L3.12969 24.6399C2.93837 24.7494 2.77937 24.9075 2.66879 25.0982C2.55821 25.2889 2.49999 25.5054 2.5 25.7259L2.5 30.8431C2.5 31.6735 3.29453 32.2727 4.09297 32.0446L17.5 28.2141V36.2501L13 39.6251C12.6852 39.861 12.5 40.2321 12.5 40.6251V43.7493C12.5 44.5626 13.2641 45.1595 14.0531 44.9618L22.5 42.5001L30.9469 44.9618C31.7359 45.1595 32.5 44.5626 32.5 43.7493V40.6251C32.5 40.2313 32.3148 39.861 32 39.6251L27.5 36.2501V28.2141L40.9062 32.0446C41.7047 32.2727 42.5 31.6735 42.5 30.8431V25.7259C42.5 25.2774 42.2594 24.8634 41.8703 24.6407L27.5 16.429L27.5 7.50008C27.5 4.73837 25.2617 8.39233e-05 22.5 8.39233e-05C19.7383 8.39233e-05 17.5 4.73837 17.5 7.50008Z" fill="white"/>
</svg>
